# xmcd
#
# Track frame offsets: 
#        150
#        20494
#        44409
#        65224
#        83299
#        102302
#        123111
#        142591
#        162946
#        181799
#        199811
#        219213
#        232867
#        249732
#
# Disc length: 3556 seconds
#
# Revision: 3
# Processed by: cddbd v1.5.2PL0 Copyright (c) Steve Scherf et al.
# Submitted via: ExactAudioCopy v1.0b3
#
DISCID=ae0de20e
DTITLE=Various Artist - Joey 92.3 Rhythms
DYEAR=2000
DGENRE=Jazz
TTITLE0=Lisa Nillson - Vadduserarvaddufar
TTITLE1=Mondo Grosso - Laughter In The Rain
TTITLE2=Genai - Africa
TTITLE3=Rhythm Logic feat. Maysaleak - Fantasy
TTITLE4=The Blackbyrds - Walking In Rhythm
TTITLE5=Lori Perry - One Chance
TTITLE6=3D - Georgy Porgy
TTITLE7=Mark Winkler - Ebony Rain
TTITLE8=Joe McBride - Baby Come Back
TTITLE9=Eric Carmen - Isn't It Romantic
TTITLE10=Richard Darbyshire - This I Swear
TTITLE11=The Nylons - My Cherie Amour
TTITLE12=Akin - Sailing
TTITLE13=Eric Tagg - Never Too Far
EXTD=YEAR: 2000
EXTT0=
EXTT1=
EXTT2=
EXTT3=
EXTT4=
EXTT5=
EXTT6=
EXTT7=
EXTT8=
EXTT9=
EXTT10=
EXTT11=
EXTT12=
EXTT13=
PLAYORDER=
